<svg xmlns="http://www.w3.org/2000/svg" viewBox="0 0 545.27 489">
	<defs>
		<style>
			.cls-1{fill:#234ac8;}.cls-2{fill:#00aeef;}
		</style>
	</defs>
	<g id="图层_2" data-name="图层 2">
		<g id="图层_1-2" data-name="图层 1">
			<g id="shape_BwJcYnEnBE" data-name="shape BwJcYnEnBE">
				<path fill="#234ac8" class="cls-1" d="M110.2,126.23A38.23,38.23,0,0,1,148.43,88h25.95a38.53,38.53,0,0,1,36.82,38.67h0v70.39a2.94,2.94,0,0,0,2.94,2.94H323.26a2.94,2.94,0,0,0,2.94-2.94V125.6A37.73,37.73,0,0,1,363.8,88h21.6a38.21,38.21,0,0,0,24.27-8.8l30.4-25.87L424.6,26.4A53,53,0,0,0,378.73,0H161.67A53.62,53.62,0,0,0,115.8,26.4L7,215.2A53.3,53.3,0,0,0,7,268L76.6,388.53l20-16.8a38.19,38.19,0,0,0,13.6-29.06Z" />
				<path fill="#00aeef"  class="cls-2" d="M538,219.93,467.88,99.4,446.8,117.27a37.86,37.86,0,0,0-13.6,29.33V362.77A38.23,38.23,0,0,1,395,401H366.29a38.51,38.51,0,0,1-37.09-38.4V291.94a2.94,2.94,0,0,0-2.94-2.94H217.14a2.94,2.94,0,0,0-2.94,2.94v70.83A38.23,38.23,0,0,1,176,401H156.05a39.69,39.69,0,0,0-24.81,8.8L100.3,435.67,115,461a55.91,55.91,0,0,0,48.55,28H382a53.74,53.74,0,0,0,46.15-26.4L538.3,273.27A53.65,53.65,0,0,0,538,219.93Z" />
				<path fill="#234ac8"  class="cls-1" d="M382,368.05c11.18-1.6,19.17-12,19.17-23.52V138.26A23.26,23.26,0,0,0,377.94,115h-1.89a16.82,16.82,0,0,0-8.2,1.87A20.59,20.59,0,0,0,356.2,135.6v83.46a2.94,2.94,0,0,1-2.94,2.94H184.86a2.67,2.67,0,0,1-2.66-2.68V133.73A18.74,18.74,0,0,0,163.56,115h-5.32a21.13,21.13,0,0,0-21,21.13v212.2A20.7,20.7,0,0,0,157.91,369H163a19.8,19.8,0,0,0,13.72-5.64,21.47,21.47,0,0,0,6.46-15V269.94a2.94,2.94,0,0,1,2.94-2.94H353.26a2.94,2.94,0,0,1,2.94,2.94v74.85C356.2,359,368.18,370.19,382,368.05Z" />
			</g>
		</g>
	</g>
</svg>
